<?xml version="1.0"?>
<svg xmlns="http://www.w3.org/2000/svg" xmlns:xlink="http://www.w3.org/1999/xlink" xmlns:svgjs="http://svgjs.com/svgjs" version="1.1" width="512" height="512" x="0" y="0" viewBox="0 0 512 512.025" style="enable-background:new 0 0 512 512" xml:space="preserve" class=""><g><path xmlns="http://www.w3.org/2000/svg" d="m507.601562 4.425781c5.902344 5.800781 5.902344 15.300781 0 21.199219l-166.199218 166.199219h53.898437c8.300781 0 15 6.699219 15 15s-6.699219 15-15 15h-90.097656c-8.300781 0-15-6.699219-15-15v-89.898438c0-8.300781 6.699219-15 15-15s15 6.699219 15 15v53.699219l166.199219-166.199219c5.898437-5.902343 15.398437-5.902343 21.199218 0zm0 0" fill="#31b70c" data-original="#000000" style="" class=""/><path xmlns="http://www.w3.org/2000/svg" d="m464.402344 426.925781c1.199218 16.300781-4.898438 31.300781-17.101563 42.199219-31.097656 27.699219-71.296875 42.898438-113.097656 42.898438-45.601563 0-88.402344-17.699219-120.601563-49.898438l-163.699218-163.601562c-63.699219-63.699219-66.800782-166.398438-7-233.699219 10.898437-12.199219 25.800781-18.300781 42.199218-17.097657 16.300782 1.199219 30.300782 9.398438 39.300782 23.097657l50.898437 77.5c12.203125 18.601562 11.203125 42.800781-2.597656 60.101562-11.800781 14.898438-10.601563 36.199219 2.800781 49.597657l78.699219 78.601562c13.398437 13.398438 34.800781 14.601562 49.597656 2.800781 17.402344-13.800781 41.5-14.902343 60.203125-2.601562l77.5 50.902343c13.5 8.898438 21.699219 22.898438 22.898438 39.199219zm0 0" fill="#31b70c" data-original="#000000" style="" class=""/></g></svg>
