<svg height="512" viewBox="0 0 58 53" width="512" xmlns="http://www.w3.org/2000/svg"><g id="Page-1" fill="none" fill-rule="evenodd"><g id="067---missed-call" fill-rule="nonzero" transform="translate(-1)"><path id="Shape" d="m40.186 45.419 9.973 7.236c.718772.5218232 1.7101307.4442607 2.339-.183l5.975-5.961c.5551-.5583757.6871506-1.4108493.327-2.111-4.583-9.028-15.745-15.4-28.8-15.4s-24.217 6.372-28.8 15.4c-.36263121.700743-.23129132 1.5554626.325 2.115l5.975 5.957c.6288693.6272607 1.62022802.7048232 2.339.183l9.973-7.236c.3558102-.2582442.6048037-.6377814.7-1.067l1.2-5.424c.1796818-.7893569.7864093-1.4115326 1.571-1.611 4.4028926-1.1226838 9.0171074-1.1226838 13.42 0 .7845624.1991727 1.3911146.8215648 1.57 1.611l1.2 5.424c.0985037.4311862.3523139.8110116.713 1.067z" fill="#e64c3c"/><path id="Shape" d="m49.758.138-14 1.555c-.3822132.04164902-.7067023.29873838-.8346635.66129522-.1279613.36255684-.036732.76637037.2346635 1.03870478l4.1 4.1-9.385 9.385-15.797-14.047c-1.0737032-.98650901-2.6927263-1.08299878-3.876-.231-.71964265.54109148-1.15821001 1.37679196-1.19464492 2.27642412s.33311558 1.76806124 1.00664492 2.36557588l18 16c1.1871701 1.0550093 2.9908878 1.0019588 4.114-.121l11.38-11.385 4.1 4.1c.2723344.2713955.6761479.3626248 1.0387048.2346635.3625568-.1279612.6196462-.4524503.6612952-.8346635l1.555-14c.0314045-.30063922-.074864-.59935058-.2890898-.81260519-.2142257-.21325461-.5134168-.31816493-.8139102-.28539481z" fill="#c03a2b"/></g></g></svg>