<?xml version="1.0"?>
<svg xmlns="http://www.w3.org/2000/svg" xmlns:xlink="http://www.w3.org/1999/xlink" xmlns:svgjs="http://svgjs.com/svgjs" version="1.1" width="512" height="512" x="0" y="0" viewBox="0 0 58 58" style="enable-background:new 0 0 512 512" xml:space="preserve" class=""><g><g xmlns="http://www.w3.org/2000/svg" id="Page-1" fill="none" fill-rule="evenodd"><g id="009---Outgoing-Call" fill="rgb(0,0,0)" fill-rule="nonzero" transform="translate(-1)"><path id="Shape" d="m25.017 33.983c-5.536-5.536-6.786-11.072-7.068-13.29-.0787994-.6132828.1322481-1.2283144.571-1.664l4.48-4.478c.6590136-.6586066.7759629-1.685024.282-2.475l-7.133-11.076c-.5464837-.87475134-1.6685624-1.19045777-2.591-.729l-11.451 5.393c-.74594117.367308-1.18469338 1.15985405-1.1 1.987.6 5.7 3.085 19.712 16.855 33.483s27.78 16.255 33.483 16.855c.827146.0846934 1.619692-.3540588 1.987-1.1l5.393-11.451c.4597307-.9204474.146114-2.0395184-.725-2.587l-11.076-7.131c-.7895259-.4944789-1.8158967-.3783642-2.475.28l-4.478 4.48c-.4356856.4387519-1.0507172.6497994-1.664.571-2.218-.282-7.754-1.532-13.29-7.068z" fill="#31b70c" data-original="#000000" style="" class=""/><path id="Shape" d="m45 22.99v3.953c.0000682.382831.2186946.732025.5630446.8993051.3443501.1672801.7539821.1232845 1.0549554-.1133051l11.391-8.951c.2392384-.1872648.3790172-.4741857.3790172-.778s-.1397788-.5907352-.3790172-.778l-11.409-8.964c-.2983011-.23237262-.7028386-.27474071-1.0428124-.109216-.3399737.16552472-.5561231.51008978-.5571876.888216v3.978c-.0010676.5432053-.4388213.9845252-.982.99-4.322.055-13.842.756-15.7 9.7-.0836941.4109691.1009258.8300372.4606615 1.0456538s.81635.1808882 1.1393385-.0866538c1.591-1.3 4.382-2.664 9.082-2.664h5.01c.5467619 0 .99.4432381.99.99z" fill="#31b70c" data-original="#000000" style="" class=""/></g></g></g></svg>
